<?xml version="1.0" encoding="utf-8"?>
<!-- Generator: Adobe Illustrator 26.2.0, SVG Export Plug-In . SVG Version: 6.00 Build 0)  -->
<svg version="1.1" id="Layer_1" xmlns="http://www.w3.org/2000/svg" xmlns:xlink="http://www.w3.org/1999/xlink" x="0px" y="0px"
	 viewBox="0 0 9.3 15.9" style="enable-background:new 0 0 9.3 15.9;" xml:space="preserve">
<style type="text/css">
	.st0{fill-rule:evenodd;clip-rule:evenodd;fill:#7267DB;}
</style>
<path class="st0" d="M3.5,7.9l5.4-5.4C9.5,2,9.5,1,8.9,0.4c-0.6-0.6-1.5-0.6-2.1,0c0,0,0,0,0,0L0.4,6.8C0.1,7.1,0,7.5,0,7.9
	C0,8.3,0.1,8.7,0.4,9l6.4,6.4c0,0,0,0,0,0c0.6,0.6,1.5,0.6,2.1,0c0.6-0.6,0.6-1.5,0-2.1L3.5,7.9z"/>
</svg>
