<?xml version="1.0" encoding="utf-8"?>
<!-- Generator: Adobe Illustrator 26.1.0, SVG Export Plug-In . SVG Version: 6.00 Build 0)  -->
<svg version="1.1" id="Layer_1" xmlns="http://www.w3.org/2000/svg" xmlns:xlink="http://www.w3.org/1999/xlink" x="0px" y="0px"
	 viewBox="0 0 13.7 13.1" style="enable-background:new 0 0 13.7 13.1;" xml:space="preserve">
<style type="text/css">
	.st0{fill-rule:evenodd;clip-rule:evenodd;fill:#FFFFFF;}
</style>
<path class="st0" d="M13.5,5.6c0.1-0.1,0.2-0.2,0.2-0.4c0.1-0.4-0.2-0.7-0.6-0.8L9.5,4C9.3,3.9,9.1,3.8,9,3.6L7.4,0.4
	C7.4,0.2,7.3,0.1,7.1,0.1C6.8-0.1,6.4,0,6.2,0.4L4.6,3.6C4.6,3.8,4.4,3.9,4.1,4L0.6,4.5c-0.1,0-0.3,0.1-0.4,0.2
	c-0.3,0.3-0.3,0.7,0,0.9l2.6,2.5C2.9,8.3,3,8.5,3,8.7l-0.6,3.6c0,0.1,0,0.3,0.1,0.4C2.6,13.1,3,13.2,3.3,13l3.2-1.7
	c0.2-0.1,0.4-0.1,0.6,0l3.2,1.7c0.1,0.1,0.3,0.1,0.4,0.1c0.4-0.1,0.6-0.4,0.5-0.8l-0.6-3.6c0-0.2,0-0.4,0.2-0.6L13.5,5.6z"/>
</svg>
