<?xml version="1.0" encoding="utf-8"?>
<!-- Generator: Adobe Illustrator 26.1.0, SVG Export Plug-In . SVG Version: 6.00 Build 0)  -->
<svg version="1.1" id="Layer_1" xmlns="http://www.w3.org/2000/svg" xmlns:xlink="http://www.w3.org/1999/xlink" x="0px" y="0px"
	 viewBox="0 0 18.7 15.6" style="enable-background:new 0 0 18.7 15.6;" xml:space="preserve">
<style type="text/css">
	.st0{fill-rule:evenodd;clip-rule:evenodd;fill:#73757b;}
</style>
<path class="st0" d="M18.3,13.9l-4.5-3.1c1.7-3.3,0.8-7.3-2.2-9.5C10,0.2,8-0.2,6.1,0.1C4.2,0.5,2.5,1.6,1.4,3.2
	c-2.3,3.4-1.6,8,1.7,10.3c1.3,0.9,2.7,1.3,4.1,1.3c2,0,4.1-0.9,5.5-2.5l4.5,3.1c0.4,0.3,1,0.2,1.3-0.2
	C18.8,14.8,18.7,14.2,18.3,13.9z M4.1,11.9c-2.5-1.7-3-5.2-1.3-7.7C3.7,3,5,2.2,6.4,1.9c1.4-0.3,2.9,0,4.1,0.9
	c2.5,1.7,3,5.2,1.3,7.7C10,13,6.6,13.7,4.1,11.9z"/>
</svg>
